<?xml version="1.0" encoding="UTF-8" standalone="no"?>
<svg
   xmlns:dc="http://purl.org/dc/elements/1.1/"
   xmlns:cc="http://creativecommons.org/ns#"
   xmlns:rdf="http://www.w3.org/1999/02/22-rdf-syntax-ns#"
   xmlns:svg="http://www.w3.org/2000/svg"
   xmlns="http://www.w3.org/2000/svg"
   xmlns:sodipodi="http://sodipodi.sourceforge.net/DTD/sodipodi-0.dtd"
   xmlns:inkscape="http://www.inkscape.org/namespaces/inkscape"
   enable-background="new 0 0 64 64"
   height="48"
   version="1.1"
   viewBox="0 0 48 48"
   width="48"
   xml:space="preserve"
   id="svg2"
   inkscape:version="0.91 r13725"
   sodipodi:docname="1461694962_key.svg"><metadata
     id="metadata26"><rdf:RDF><cc:Work
         rdf:about=""><dc:format>image/svg+xml</dc:format><dc:type
           rdf:resource="http://purl.org/dc/dcmitype/StillImage" /><dc:title></dc:title></cc:Work></rdf:RDF></metadata><defs
     id="defs24" /><sodipodi:namedview
     pagecolor="#d4d4d4"
     bordercolor="#666666"
     borderopacity="1"
     objecttolerance="10"
     gridtolerance="10"
     guidetolerance="10"
     inkscape:pageopacity="0.86666667"
     inkscape:pageshadow="2"
     inkscape:window-width="1920"
     inkscape:window-height="1017"
     id="namedview22"
     showgrid="false"
     inkscape:zoom="3.6875"
     inkscape:cx="-6.9152542"
     inkscape:cy="32"
     inkscape:window-x="1912"
     inkscape:window-y="32"
     inkscape:window-maximized="1"
     inkscape:current-layer="svg2" /><g
     id="g15"
     transform="matrix(0,1,1,0,-8,-8)"><g
       id="g17"><path
         style="fill:#ffffff"
         inkscape:connector-curvature="0"
         id="path19"
         d="m 47,16 -4,0 c -0.242,0 -0.476,0.088 -0.66,0.248 L 28.536,28.35 C 27.822,28.2 26.718,28 26,28 c -5.514,0 -10,4.486 -10,10 0,5.514 4.486,10 10,10 5.514,0 10,-4.486 10,-10 0,-1.638 -0.312,-2.736 -0.666,-3.648 l 3.404,-1.156 c 0.414,-0.14 0.688,-0.534 0.678,-0.97 l -0.084,-3.796 3.82,-0.266 c 0.512,-0.036 0.914,-0.454 0.93,-0.966 l 0.142,-4.558 2.992,-0.664 C 47.674,21.876 48,21.468 48,21 l 0,-4 c 0,-0.552 -0.448,-1 -1,-1 z M 23,38 c 1.2,0 2.236,0.706 2.716,1.724 C 25.898,40.112 26,40.544 26,41 c 0,1.656 -1.344,3 -3,3 -1.656,0 -3,-1.344 -3,-3 0,-1.656 1.344,-3 3,-3 z" /></g></g><g
     id="Layer_2"
     transform="translate(0,-16)" /></svg>